# Blender v3.2.0 OBJ File: ''
# www.blender.org
mtllib chest.mtl
o chest_Cube.005
v -0.200000 0.000000 0.300000
v -0.200000 0.300000 0.300000
v -0.200000 0.000000 -0.300000
v -0.200000 0.300000 -0.300000
v 0.200000 0.000000 0.300000
v 0.200000 0.300000 0.300000
v 0.200000 0.000000 -0.300000
v 0.200000 0.300000 -0.300000
v -0.160000 0.300000 0.240000
v -0.160000 0.300000 -0.240000
v 0.160000 0.300000 0.240000
v 0.160000 0.300000 -0.240000
v -0.160000 0.250000 0.240000
v -0.160000 0.250000 -0.240000
v 0.160000 0.250000 0.240000
v 0.160000 0.250000 -0.240000
v -0.250380 0.604341 0.300000
v -0.250380 0.604341 -0.300000
v -0.250000 0.300000 0.300000
v -0.250000 0.300000 -0.300000
v -0.299620 0.595659 0.300000
v -0.299620 0.595659 -0.300000
vt 0.009798 0.193392
vt 0.009798 0.009798
vt 0.376986 0.009798
vt 0.376986 0.193392
vt 0.849755 0.457778
vt 0.849755 0.641372
vt 0.604964 0.641372
vt 0.604964 0.457778
vt 0.376986 0.438183
vt 0.376986 0.621777
vt 0.009798 0.621777
vt 0.009798 0.438183
vt 0.905636 0.009798
vt 0.905636 0.193392
vt 0.660844 0.193392
vt 0.660844 0.009798
vt 0.881157 0.230111
vt 0.685323 0.230111
vt 0.046517 0.646256
vt 0.340267 0.646256
vt 0.340267 0.676855
vt 0.046517 0.676855
vt 0.825276 0.678090
vt 0.629443 0.678090
vt 0.924430 0.457778
vt 0.924430 0.824965
vt 0.899951 0.788246
vt 0.899951 0.494496
vt 0.205632 0.990202
vt 0.009798 0.990202
vt 0.009798 0.696452
vt 0.205632 0.696452
vt 0.869352 0.788246
vt 0.869352 0.494496
vt 0.881157 0.260710
vt 0.685323 0.260710
vt 0.825276 0.708689
vt 0.629443 0.708689
vt 0.585367 0.457778
vt 0.585367 0.824965
vt 0.396582 0.824965
vt 0.396582 0.457778
vt 0.641248 0.040396
vt 0.641248 0.407583
vt 0.610649 0.407583
vt 0.610649 0.040396
vt 0.396582 0.407583
vt 0.396582 0.040396
vt 0.427181 0.040396
vt 0.427181 0.407583
vt 0.610901 0.438181
vt 0.422117 0.437760
vt 0.610901 0.009798
vt 0.422117 0.010219
vn -1.0000 0.0000 0.0000
vn 0.0000 0.0000 -1.0000
vn 1.0000 0.0000 0.0000
vn 0.0000 0.0000 1.0000
vn 0.0000 -1.0000 0.0000
vn 0.0000 1.0000 0.0000
vn 0.9866 0.1633 0.0000
vn -0.1736 0.9848 0.0000
vn -0.9862 -0.1655 0.0000
g chest_Cube.005_Chest
usemtl Chest
s off
f 1/1/1 2/2/1 4/3/1 3/4/1
f 3/5/2 4/6/2 8/7/2 7/8/2
f 7/9/3 8/10/3 6/11/3 5/12/3
f 5/13/4 6/14/4 2/15/4 1/16/4
f 3/4/5 7/9/5 5/12/5 1/1/5
f 2/15/6 6/14/6 11/17/6 9/18/6
f 11/19/1 12/20/1 16/21/1 15/22/1
f 8/7/6 4/6/6 10/23/6 12/24/6
f 6/11/6 8/10/6 12/20/6 11/19/6
f 4/25/6 2/26/6 9/27/6 10/28/6
f 16/29/6 14/30/6 13/31/6 15/32/6
f 10/28/3 9/27/3 13/33/3 14/34/3
f 9/18/2 11/17/2 15/35/2 13/36/2
f 12/24/4 10/23/4 14/37/4 16/38/4
f 2/39/7 4/40/7 18/41/7 17/42/7
f 17/43/8 18/44/8 22/45/8 21/46/8
f 4/47/5 2/48/5 19/49/5 20/50/5
f 20/50/9 19/49/9 21/46/9 22/45/9
f 18/51/2 4/52/2 20/50/2 22/45/2
f 17/53/4 21/46/4 19/49/4 2/54/4
