# Blender v3.2.0 OBJ File: ''
# www.blender.org
mtllib skybox.mtl
o Sphere
v 0.000000 -22.173107 9.184402
v 0.000000 -19.955271 13.333686
v 0.000000 -16.970562 16.970562
v 0.000000 -13.333686 19.955271
v 0.000000 -9.184402 22.173107
v 0.000000 -4.682168 23.538845
v 0.000000 0.000001 24.000000
v 0.000000 4.682168 23.538845
v 0.000000 9.184402 22.173109
v 0.000000 13.333685 19.955273
v 0.000000 16.970562 16.970562
v 0.000000 19.955273 13.333685
v 0.000000 22.173107 9.184403
v -3.310794 -23.538845 3.310792
v -6.494355 -22.173107 6.494352
v -9.428341 -19.955271 9.428339
v -12.000002 -16.970562 11.999998
v -14.110508 -13.333686 14.110506
v -15.678757 -9.184402 15.678755
v -16.644478 -4.682168 16.644478
v -16.970564 0.000001 16.970562
v -16.644478 4.682168 16.644478
v -15.678758 9.184402 15.678757
v -14.110510 13.333685 14.110508
v -12.000002 16.970562 11.999998
v -9.428340 19.955273 9.428338
v -6.494355 22.173107 6.494353
v -3.310794 23.538847 3.310791
v -4.682169 -23.538845 -0.000002
v -9.184404 -22.173107 -0.000002
v -13.333687 -19.955271 -0.000002
v -16.970564 -16.970562 -0.000002
v -19.955273 -13.333686 -0.000002
v -22.173109 -9.184402 -0.000002
v -23.538847 -4.682168 -0.000002
v -24.000004 0.000001 -0.000001
v -23.538847 4.682168 -0.000002
v -22.173113 9.184402 -0.000001
v -19.955273 13.333685 -0.000001
v -16.970564 16.970562 -0.000002
v -13.333686 19.955273 -0.000002
v -9.184405 22.173107 -0.000002
v -4.682169 23.538847 -0.000002
v -3.310794 -23.538845 -3.310796
v -6.494355 -22.173107 -6.494357
v -9.428340 -19.955271 -9.428343
v -12.000000 -16.970562 -12.000002
v -14.110508 -13.333686 -14.110510
v -15.678757 -9.184402 -15.678758
v -16.644478 -4.682168 -16.644480
v -16.970564 0.000001 -16.970566
v -16.644478 4.682168 -16.644480
v -15.678758 9.184402 -15.678759
v -14.110510 13.333685 -14.110511
v -12.000000 16.970562 -12.000002
v -9.428339 19.955273 -9.428342
v -6.494355 22.173107 -6.494357
v -3.310794 23.538847 -3.310796
v -0.000000 -24.000000 -0.000004
v -0.000000 -23.538845 -4.682171
v -0.000000 -22.173107 -9.184406
v -0.000000 -19.955271 -13.333687
v -0.000001 -16.970562 -16.970564
v -0.000001 -13.333686 -19.955273
v -0.000001 -9.184402 -22.173111
v -0.000001 -4.682168 -23.538849
v -0.000000 0.000001 -24.000000
v -0.000001 4.682168 -23.538849
v -0.000000 9.184402 -22.173113
v -0.000000 13.333685 -19.955275
v -0.000001 16.970562 -16.970564
v -0.000000 19.955273 -13.333687
v -0.000000 22.173107 -9.184406
v -0.000000 23.538847 -4.682171
v 3.310794 -23.538845 -3.310796
v 6.494355 -22.173107 -6.494357
v 9.428339 -19.955271 -9.428341
v 11.999998 -16.970562 -12.000000
v 14.110506 -13.333686 -14.110508
v 15.678755 -9.184402 -15.678757
v 16.644478 -4.682168 -16.644478
v 16.970562 0.000001 -16.970562
v 16.644478 4.682168 -16.644478
v 15.678757 9.184402 -15.678758
v 14.110508 13.333685 -14.110510
v 11.999998 16.970562 -12.000000
v 9.428339 19.955273 -9.428341
v 6.494355 22.173107 -6.494357
v 3.310794 23.538847 -3.310796
v 4.682169 -23.538845 -0.000002
v 9.184404 -22.173107 -0.000002
v 13.333685 -19.955271 -0.000002
v 16.970560 -16.970562 -0.000002
v 19.955269 -13.333686 -0.000002
v 22.173107 -9.184402 -0.000002
v 23.538845 -4.682168 -0.000002
v 23.999996 0.000001 -0.000001
v 23.538845 4.682168 -0.000002
v 22.173109 9.184402 -0.000001
v 19.955271 13.333685 -0.000001
v 16.970560 16.970562 -0.000002
v 13.333685 19.955273 -0.000002
v 9.184404 22.173107 -0.000002
v 4.682169 23.538847 -0.000002
v 0.000000 24.000000 -0.000002
v 3.310794 -23.538845 3.310791
v 6.494355 -22.173107 6.494352
v 9.428339 -19.955271 9.428337
v 11.999998 -16.970562 11.999996
v 14.110505 -13.333686 14.110504
v 15.678753 -9.184402 15.678752
v 16.644476 -4.682168 16.644474
v 16.970560 0.000001 16.970558
v 16.644476 4.682168 16.644474
v 15.678757 9.184402 15.678755
v 14.110506 13.333685 14.110505
v 11.999998 16.970562 11.999996
v 9.428339 19.955273 9.428337
v 6.494355 22.173107 6.494352
v 3.310794 23.538847 3.310791
v 0.000000 -23.538845 4.682167
v 0.000000 23.538847 4.682167
vt 0.750000 0.187500
vt 0.750000 0.250000
vt 0.625000 0.250000
vt 0.625000 0.187500
vt 0.750000 0.625000
vt 0.750000 0.687500
vt 0.625000 0.687500
vt 0.625000 0.625000
vt 0.750000 0.125000
vt 0.625000 0.125000
vt 0.750000 0.562500
vt 0.625000 0.562500
vt 0.750000 0.062500
vt 0.625000 0.062500
vt 0.750000 0.500000
vt 0.625000 0.500000
vt 0.750000 0.937500
vt 0.687500 1.000000
vt 0.625000 0.937500
vt 0.687500 0.000000
vt 0.750000 0.437500
vt 0.625000 0.437500
vt 0.750000 0.875000
vt 0.625000 0.875000
vt 0.750000 0.375000
vt 0.625000 0.375000
vt 0.750000 0.812500
vt 0.625000 0.812500
vt 0.750000 0.312500
vt 0.625000 0.312500
vt 0.750000 0.750000
vt 0.625000 0.750000
vt 0.500000 0.312500
vt 0.500000 0.250000
vt 0.500000 0.750000
vt 0.500000 0.687500
vt 0.500000 0.187500
vt 0.500000 0.625000
vt 0.500000 0.125000
vt 0.500000 0.562500
vt 0.500000 0.062500
vt 0.500000 0.500000
vt 0.562500 1.000000
vt 0.500000 0.937500
vt 0.562500 0.000000
vt 0.500000 0.437500
vt 0.500000 0.875000
vt 0.500000 0.375000
vt 0.500000 0.812500
vt 0.437500 1.000000
vt 0.375000 0.937500
vt 0.437500 0.000000
vt 0.375000 0.062500
vt 0.375000 0.500000
vt 0.375000 0.437500
vt 0.375000 0.875000
vt 0.375000 0.375000
vt 0.375000 0.812500
vt 0.375000 0.312500
vt 0.375000 0.750000
vt 0.375000 0.250000
vt 0.375000 0.687500
vt 0.375000 0.187500
vt 0.375000 0.625000
vt 0.375000 0.125000
vt 0.375000 0.562500
vt 0.250000 0.750000
vt 0.250000 0.687500
vt 0.250000 0.250000
vt 0.250000 0.187500
vt 0.250000 0.625000
vt 0.250000 0.125000
vt 0.250000 0.562500
vt 0.250000 0.062500
vt 0.250000 0.500000
vt 0.312500 1.000000
vt 0.250000 0.937500
vt 0.312500 0.000000
vt 0.250000 0.437500
vt 0.250000 0.875000
vt 0.250000 0.375000
vt 0.250000 0.812500
vt 0.250000 0.312500
vt 0.125000 0.500000
vt 0.125000 0.437500
vt 0.125000 0.937500
vt 0.125000 0.875000
vt 0.125000 0.375000
vt 0.125000 0.812500
vt 0.125000 0.312500
vt 0.125000 0.750000
vt 0.125000 0.250000
vt 0.125000 0.687500
vt 0.125000 0.187500
vt 0.125000 0.625000
vt 0.125000 0.125000
vt 0.125000 0.562500
vt 0.125000 0.062500
vt 0.187500 1.000000
vt 0.187500 0.000000
vt 0.000000 0.250000
vt 0.000000 0.187500
vt 0.000000 0.687500
vt 0.000000 0.625000
vt 0.000000 0.125000
vt 0.000000 0.562500
vt 0.000000 0.062500
vt 0.000000 0.500000
vt 0.062500 1.000000
vt 0.000000 0.937500
vt 0.062500 0.000000
vt 0.000000 0.437500
vt 0.000000 0.875000
vt 0.000000 0.375000
vt 0.000000 0.812500
vt 0.000000 0.312500
vt 0.000000 0.750000
vt 1.000000 0.375000
vt 1.000000 0.437500
vt 0.875000 0.437500
vt 0.875000 0.375000
vt 1.000000 0.812500
vt 1.000000 0.875000
vt 0.875000 0.875000
vt 0.875000 0.812500
vt 1.000000 0.312500
vt 0.875000 0.312500
vt 1.000000 0.750000
vt 0.875000 0.750000
vt 1.000000 0.250000
vt 0.875000 0.250000
vt 1.000000 0.687500
vt 0.875000 0.687500
vt 1.000000 0.187500
vt 0.875000 0.187500
vt 1.000000 0.625000
vt 0.875000 0.625000
vt 1.000000 0.125000
vt 0.875000 0.125000
vt 1.000000 0.562500
vt 0.875000 0.562500
vt 1.000000 0.062500
vt 0.875000 0.062500
vt 1.000000 0.500000
vt 0.875000 0.500000
vt 1.000000 0.937500
vt 0.937500 1.000000
vt 0.875000 0.937500
vt 0.937500 0.000000
vt 0.812500 1.000000
vt 0.812500 0.000000
vn -0.0000 -0.8203 -0.5719
vn -0.0000 -0.6952 -0.7188
vn 0.5083 -0.6952 -0.5083
vn 0.4044 -0.8203 -0.4044
vn -0.0000 0.3745 -0.9272
vn -0.0000 0.5447 -0.8386
vn 0.5930 0.5447 -0.5930
vn 0.6557 0.3745 -0.6557
vn -0.0000 -0.9151 -0.4031
vn 0.2851 -0.9151 -0.2851
vn -0.0000 0.1907 -0.9817
vn 0.6941 0.1907 -0.6941
vn -0.0000 -0.9759 -0.2184
vn 0.1544 -0.9759 -0.1544
vn -0.0000 -0.0000 -1.0000
vn 0.7071 -0.0000 -0.7071
vn -0.0000 0.9759 -0.2184
vn -0.0000 1.0000 0.0000
vn 0.1544 0.9759 -0.1544
vn 0.0000 -1.0000 0.0000
vn -0.0000 -0.1907 -0.9817
vn 0.6941 -0.1907 -0.6941
vn -0.0000 0.9151 -0.4031
vn 0.2851 0.9151 -0.2851
vn -0.0000 -0.3745 -0.9272
vn 0.6557 -0.3745 -0.6557
vn -0.0000 0.8203 -0.5719
vn 0.4044 0.8203 -0.4044
vn -0.0000 -0.5447 -0.8386
vn 0.5930 -0.5447 -0.5930
vn -0.0000 0.6952 -0.7188
vn 0.5083 0.6952 -0.5083
vn 0.8386 -0.5447 -0.0000
vn 0.7188 -0.6952 0.0000
vn 0.7188 0.6952 0.0000
vn 0.8386 0.5447 -0.0000
vn 0.5719 -0.8203 0.0000
vn 0.9272 0.3745 0.0000
vn 0.4031 -0.9151 -0.0000
vn 0.9817 0.1907 0.0000
vn 0.2184 -0.9759 -0.0000
vn 1.0000 -0.0000 -0.0000
vn 0.2184 0.9759 0.0000
vn 0.9817 -0.1907 0.0000
vn 0.4031 0.9151 0.0000
vn 0.9272 -0.3745 -0.0000
vn 0.5719 0.8203 0.0000
vn 0.1544 0.9759 0.1544
vn 0.1544 -0.9759 0.1544
vn 0.7071 -0.0000 0.7071
vn 0.6941 -0.1907 0.6941
vn 0.2851 0.9151 0.2851
vn 0.6557 -0.3745 0.6557
vn 0.4044 0.8203 0.4044
vn 0.5930 -0.5447 0.5930
vn 0.5083 0.6952 0.5083
vn 0.5083 -0.6952 0.5083
vn 0.5930 0.5447 0.5930
vn 0.4044 -0.8203 0.4044
vn 0.6557 0.3745 0.6557
vn 0.2851 -0.9151 0.2851
vn 0.6941 0.1907 0.6941
vn -0.0000 0.6952 0.7188
vn -0.0000 0.5447 0.8386
vn -0.0000 -0.6952 0.7188
vn -0.0000 -0.8203 0.5719
vn -0.0000 0.3745 0.9272
vn -0.0000 -0.9151 0.4031
vn -0.0000 0.1907 0.9817
vn -0.0000 -0.9759 0.2184
vn -0.0000 -0.0000 1.0000
vn -0.0000 0.9759 0.2184
vn 0.0000 -0.1907 0.9817
vn -0.0000 0.9151 0.4031
vn -0.0000 -0.3745 0.9272
vn -0.0000 0.8203 0.5719
vn -0.0000 -0.5447 0.8386
vn -0.7071 -0.0000 0.7071
vn -0.6941 -0.1907 0.6941
vn -0.1544 0.9759 0.1544
vn -0.2851 0.9151 0.2851
vn -0.6557 -0.3745 0.6557
vn -0.4044 0.8203 0.4044
vn -0.5930 -0.5447 0.5930
vn -0.5083 0.6952 0.5083
vn -0.5083 -0.6952 0.5083
vn -0.5930 0.5447 0.5930
vn -0.4044 -0.8203 0.4044
vn -0.6557 0.3745 0.6557
vn -0.2851 -0.9151 0.2851
vn -0.6941 0.1907 0.6941
vn -0.1544 -0.9759 0.1544
vn -0.7188 -0.6952 -0.0000
vn -0.5719 -0.8203 0.0000
vn -0.8386 0.5447 0.0000
vn -0.9272 0.3745 -0.0000
vn -0.4031 -0.9151 -0.0000
vn -0.9817 0.1907 -0.0000
vn -0.2184 -0.9759 -0.0000
vn -1.0000 -0.0000 -0.0000
vn -0.2184 0.9759 0.0000
vn -0.9817 -0.1907 -0.0000
vn -0.4031 0.9151 -0.0000
vn -0.9272 -0.3745 -0.0000
vn -0.5719 0.8203 0.0000
vn -0.8386 -0.5447 -0.0000
vn -0.7188 0.6952 0.0000
vn -0.6941 -0.1907 -0.6941
vn -0.6557 -0.3745 -0.6557
vn -0.2851 0.9151 -0.2851
vn -0.4044 0.8203 -0.4044
vn -0.5930 -0.5447 -0.5930
vn -0.5083 0.6952 -0.5083
vn -0.5083 -0.6952 -0.5083
vn -0.5930 0.5447 -0.5930
vn -0.4044 -0.8203 -0.4044
vn -0.6557 0.3745 -0.6557
vn -0.2851 -0.9151 -0.2851
vn -0.6941 0.1907 -0.6941
vn -0.1544 -0.9759 -0.1544
vn -0.7071 -0.0000 -0.7071
vn -0.1544 0.9759 -0.1544
g Sphere_Sphere_Skybox
usemtl Skybox
s 1
f 12/1/1 11/2/2 25/3/3 26/4/4
f 5/5/5 4/6/6 18/7/7 19/8/8
f 13/9/9 12/1/1 26/4/4 27/10/10
f 6/11/11 5/5/5 19/8/8 20/12/12
f 122/13/13 13/9/9 27/10/10 28/14/14
f 7/15/15 6/11/11 20/12/12 21/16/16
f 121/17/17 59/18/18 14/19/19
f 105/20/20 122/13/13 28/14/14
f 8/21/21 7/15/15 21/16/16 22/22/22
f 1/23/23 121/17/17 14/19/19 15/24/24
f 9/25/25 8/21/21 22/22/22 23/26/26
f 2/27/27 1/23/23 15/24/24 16/28/28
f 10/29/29 9/25/25 23/26/26 24/30/30
f 3/31/31 2/27/27 16/28/28 17/32/32
f 11/2/2 10/29/29 24/30/30 25/3/3
f 4/6/6 3/31/31 17/32/32 18/7/7
f 25/3/3 24/30/30 39/33/33 40/34/34
f 18/7/7 17/32/32 32/35/35 33/36/36
f 26/4/4 25/3/3 40/34/34 41/37/37
f 19/8/8 18/7/7 33/36/36 34/38/38
f 27/10/10 26/4/4 41/37/37 42/39/39
f 20/12/12 19/8/8 34/38/38 35/40/40
f 28/14/14 27/10/10 42/39/39 43/41/41
f 21/16/16 20/12/12 35/40/40 36/42/42
f 14/19/19 59/43/18 29/44/43
f 105/45/20 28/14/14 43/41/41
f 22/22/22 21/16/16 36/42/42 37/46/44
f 15/24/24 14/19/19 29/44/43 30/47/45
f 23/26/26 22/22/22 37/46/44 38/48/46
f 16/28/28 15/24/24 30/47/45 31/49/47
f 24/30/30 23/26/26 38/48/46 39/33/33
f 17/32/32 16/28/28 31/49/47 32/35/35
f 29/44/43 59/50/18 44/51/48
f 105/52/20 43/41/41 58/53/49
f 37/46/44 36/42/42 51/54/50 52/55/51
f 30/47/45 29/44/43 44/51/48 45/56/52
f 38/48/46 37/46/44 52/55/51 53/57/53
f 31/49/47 30/47/45 45/56/52 46/58/54
f 39/33/33 38/48/46 53/57/53 54/59/55
f 32/35/35 31/49/47 46/58/54 47/60/56
f 40/34/34 39/33/33 54/59/55 55/61/57
f 33/36/36 32/35/35 47/60/56 48/62/58
f 41/37/37 40/34/34 55/61/57 56/63/59
f 34/38/38 33/36/36 48/62/58 49/64/60
f 42/39/39 41/37/37 56/63/59 57/65/61
f 35/40/40 34/38/38 49/64/60 50/66/62
f 43/41/41 42/39/39 57/65/61 58/53/49
f 36/42/42 35/40/40 50/66/62 51/54/50
f 48/62/58 47/60/56 63/67/63 64/68/64
f 56/63/59 55/61/57 71/69/65 72/70/66
f 49/64/60 48/62/58 64/68/64 65/71/67
f 57/65/61 56/63/59 72/70/66 73/72/68
f 50/66/62 49/64/60 65/71/67 66/73/69
f 58/53/49 57/65/61 73/72/68 74/74/70
f 51/54/50 50/66/62 66/73/69 67/75/71
f 44/51/48 59/76/18 60/77/72
f 105/78/20 58/53/49 74/74/70
f 52/55/51 51/54/50 67/75/71 68/79/73
f 45/56/52 44/51/48 60/77/72 61/80/74
f 53/57/53 52/55/51 68/79/73 69/81/75
f 46/58/54 45/56/52 61/80/74 62/82/76
f 54/59/55 53/57/53 69/81/75 70/83/77
f 47/60/56 46/58/54 62/82/76 63/67/63
f 55/61/57 54/59/55 70/83/77 71/69/65
f 68/79/73 67/75/71 82/84/78 83/85/79
f 61/80/74 60/77/72 75/86/80 76/87/81
f 69/81/75 68/79/73 83/85/79 84/88/82
f 62/82/76 61/80/74 76/87/81 77/89/83
f 70/83/77 69/81/75 84/88/82 85/90/84
f 63/67/63 62/82/76 77/89/83 78/91/85
f 71/69/65 70/83/77 85/90/84 86/92/86
f 64/68/64 63/67/63 78/91/85 79/93/87
f 72/70/66 71/69/65 86/92/86 87/94/88
f 65/71/67 64/68/64 79/93/87 80/95/89
f 73/72/68 72/70/66 87/94/88 88/96/90
f 66/73/69 65/71/67 80/95/89 81/97/91
f 74/74/70 73/72/68 88/96/90 89/98/92
f 67/75/71 66/73/69 81/97/91 82/84/78
f 60/77/72 59/99/18 75/86/80
f 105/100/20 74/74/70 89/98/92
f 87/94/88 86/92/86 101/101/93 102/102/94
f 80/95/89 79/93/87 94/103/95 95/104/96
f 88/96/90 87/94/88 102/102/94 103/105/97
f 81/97/91 80/95/89 95/104/96 96/106/98
f 89/98/92 88/96/90 103/105/97 104/107/99
f 82/84/78 81/97/91 96/106/98 97/108/100
f 75/86/80 59/109/18 90/110/101
f 105/111/20 89/98/92 104/107/99
f 83/85/79 82/84/78 97/108/100 98/112/102
f 76/87/81 75/86/80 90/110/101 91/113/103
f 84/88/82 83/85/79 98/112/102 99/114/104
f 77/89/83 76/87/81 91/113/103 92/115/105
f 85/90/84 84/88/82 99/114/104 100/116/106
f 78/91/85 77/89/83 92/115/105 93/117/107
f 86/92/86 85/90/84 100/116/106 101/101/93
f 79/93/87 78/91/85 93/117/107 94/103/95
f 99/118/104 98/119/102 114/120/108 115/121/109
f 92/122/105 91/123/103 107/124/110 108/125/111
f 100/126/106 99/118/104 115/121/109 116/127/112
f 93/128/107 92/122/105 108/125/111 109/129/113
f 101/130/93 100/126/106 116/127/112 117/131/114
f 94/132/95 93/128/107 109/129/113 110/133/115
f 102/134/94 101/130/93 117/131/114 118/135/116
f 95/136/96 94/132/95 110/133/115 111/137/117
f 103/138/97 102/134/94 118/135/116 119/139/118
f 96/140/98 95/136/96 111/137/117 112/141/119
f 104/142/99 103/138/97 119/139/118 120/143/120
f 97/144/100 96/140/98 112/141/119 113/145/121
f 90/146/101 59/147/18 106/148/122
f 105/149/20 104/142/99 120/143/120
f 98/119/102 97/144/100 113/145/121 114/120/108
f 91/123/103 90/146/101 106/148/122 107/124/110
f 119/139/118 118/135/116 12/1/1 13/9/9
f 112/141/119 111/137/117 5/5/5 6/11/11
f 120/143/120 119/139/118 13/9/9 122/13/13
f 113/145/121 112/141/119 6/11/11 7/15/15
f 106/148/122 59/150/18 121/17/17
f 105/151/20 120/143/120 122/13/13
f 114/120/108 113/145/121 7/15/15 8/21/21
f 107/124/110 106/148/122 121/17/17 1/23/23
f 115/121/109 114/120/108 8/21/21 9/25/25
f 108/125/111 107/124/110 1/23/23 2/27/27
f 116/127/112 115/121/109 9/25/25 10/29/29
f 109/129/113 108/125/111 2/27/27 3/31/31
f 117/131/114 116/127/112 10/29/29 11/2/2
f 110/133/115 109/129/113 3/31/31 4/6/6
f 118/135/116 117/131/114 11/2/2 12/1/1
f 111/137/117 110/133/115 4/6/6 5/5/5
